  <svg xmlns="http://www.w3.org/2000/svg">
    <symbol viewBox="-7 0 32 32" id="instagram">
   <path d="M14.48 11.28c0 0.48-0.4 0.84-0.84 0.84-0.48 0-0.84-0.4-0.84-0.84 0-0.48 0.4-0.84 0.84-0.84 0.44-0.040 0.84 0.36 0.84 0.84zM17.76 11.64v8.72c0 2.48-2.040 4.52-4.52 4.52h-8.72c-2.48 0-4.52-2.040-4.52-4.52v-8.72c0-2.48 2.040-4.52 4.52-4.52h8.72c2.52 0 4.52 2.040 4.52 4.52zM16.080 11.64c0-1.56-1.28-2.84-2.84-2.84h-8.72c-1.56 0-2.84 1.28-2.84 2.84v8.72c0 1.56 1.28 2.84 2.84 2.84h8.72c1.6 0 2.88-1.28 2.88-2.84l-0.040-8.72zM13.52 16c0-2.56-2.080-4.64-4.64-4.64s-4.64 2.080-4.64 4.64 2.080 4.64 4.64 4.64 4.64-2.080 4.64-4.64zM11.84 16c0 1.64-1.32 2.96-2.96 2.96s-2.96-1.32-2.96-2.96 1.32-2.96 2.96-2.96 2.96 1.32 2.96 2.96z"></path>
    </symbol>
    <symbol viewBox="0 0 192 192" id="telegram">
   <path  stroke-width="12" d="M23.073 88.132s65.458-26.782 88.16-36.212c8.702-3.772 38.215-15.843 38.215-15.843s13.621-5.28 12.486 7.544c-.379 5.281-3.406 23.764-6.433 43.756-4.54 28.291-9.459 59.221-9.459 59.221s-.756 8.676-7.188 10.185c-6.433 1.509-17.027-5.281-18.919-6.79-1.513-1.132-28.377-18.106-38.214-26.404-2.649-2.263-5.676-6.79.378-12.071 13.621-12.447 29.891-27.913 39.728-37.72 4.54-4.527 9.081-15.089-9.837-2.264-26.864 18.483-53.35 35.835-53.35 35.835s-6.053 3.772-17.404.377c-11.351-3.395-24.594-7.921-24.594-7.921s-9.08-5.659 6.433-11.693Z"/>
    </symbol>
   <symbol  viewBox="-143 145 512 512" id="facebook">
   <path d="M113,145c-141.4,0-256,114.6-256,256s114.6,256,256,256s256-114.6,256-256S254.4,145,113,145z M272.8,560.7
		c-20.8,20.8-44.9,37.1-71.8,48.4c-27.8,11.8-57.4,17.7-88,17.7c-30.5,0-60.1-6-88-17.7c-26.9-11.4-51.1-27.7-71.8-48.4
		c-20.8-20.8-37.1-44.9-48.4-71.8C-107,461.1-113,431.5-113,401s6-60.1,17.7-88c11.4-26.9,27.7-51.1,48.4-71.8
		c20.9-20.8,45-37.1,71.9-48.5C52.9,181,82.5,175,113,175s60.1,6,88,17.7c26.9,11.4,51.1,27.7,71.8,48.4
		c20.8,20.8,37.1,44.9,48.4,71.8c11.8,27.8,17.7,57.4,17.7,88c0,30.5-6,60.1-17.7,88C309.8,515.8,293.5,540,272.8,560.7z"/>
	<path d="M146.8,313.7c10.3,0,21.3,3.2,21.3,3.2l6.6-39.2c0,0-14-4.8-47.4-4.8c-20.5,0-32.4,7.8-41.1,19.3
		c-8.2,10.9-8.5,28.4-8.5,39.7v25.7H51.2v38.3h26.5v133h49.6v-133h39.3l2.9-38.3h-42.2v-29.9C127.3,317.4,136.5,313.7,146.8,313.7z"
		/>
   </symbol>

    </svg>
