  <svg xmlns="http://www.w3.org/2000/svg">
    <symbol viewBox="0 0 24 24" id="instagram">

  <path d="M12 7.90001C11.1891 7.90001 10.3964 8.14048 9.72218 8.59099C9.04794 9.0415 8.52243 9.68184 8.21211 10.431C7.90179 11.1802 7.8206 12.0046 7.9788 12.7999C8.13699 13.5952 8.52748 14.3258 9.10088 14.8992C9.67427 15.4725 10.4048 15.863 11.2001 16.0212C11.9955 16.1794 12.8198 16.0982 13.569 15.7879C14.3182 15.4776 14.9585 14.9521 15.409 14.2779C15.8596 13.6036 16.1 12.8109 16.1 12C16.1013 11.4612 15.9962 10.9275 15.7906 10.4295C15.585 9.93142 15.2831 9.47892 14.9021 9.09794C14.5211 8.71695 14.0686 8.415 13.5706 8.20942C13.0725 8.00385 12.5388 7.8987 12 7.90001ZM12 14.67C11.4719 14.67 10.9557 14.5134 10.5166 14.22C10.0776 13.9267 9.73534 13.5097 9.53326 13.0218C9.33117 12.5339 9.2783 11.9971 9.38132 11.4791C9.48434 10.9612 9.73863 10.4854 10.112 10.112C10.4854 9.73863 10.9612 9.48434 11.4791 9.38132C11.9971 9.2783 12.5339 9.33117 13.0218 9.53326C13.5097 9.73534 13.9267 10.0776 14.22 10.5166C14.5134 10.9557 14.67 11.4719 14.67 12C14.67 12.7081 14.3887 13.3873 13.888 13.888C13.3873 14.3887 12.7081 14.67 12 14.67ZM17.23 7.73001C17.23 7.9278 17.1714 8.12114 17.0615 8.28558C16.9516 8.45003 16.7954 8.57821 16.6127 8.65389C16.43 8.72958 16.2289 8.74938 16.0349 8.7108C15.8409 8.67221 15.6628 8.57697 15.5229 8.43712C15.3831 8.29727 15.2878 8.11909 15.2492 7.92511C15.2106 7.73112 15.2304 7.53006 15.3061 7.34733C15.3818 7.16461 15.51 7.00843 15.6744 6.89855C15.8389 6.78866 16.0322 6.73001 16.23 6.73001C16.4952 6.73001 16.7496 6.83537 16.9371 7.02291C17.1247 7.21044 17.23 7.4648 17.23 7.73001ZM19.94 8.73001C19.9691 7.48684 19.5054 6.28261 18.65 5.38001C17.7522 4.5137 16.5474 4.03897 15.3 4.06001C14 4.00001 10 4.00001 8.70001 4.06001C7.45722 4.0331 6.25379 4.49652 5.35001 5.35001C4.49465 6.25261 4.03093 7.45684 4.06001 8.70001C4.00001 10 4.00001 14 4.06001 15.3C4.03093 16.5432 4.49465 17.7474 5.35001 18.65C6.25379 19.5035 7.45722 19.9669 8.70001 19.94C10.02 20.02 13.98 20.02 15.3 19.94C16.5432 19.9691 17.7474 19.5054 18.65 18.65C19.5054 17.7474 19.9691 16.5432 19.94 15.3C20 14 20 10 19.94 8.70001V8.73001ZM18.24 16.73C18.1042 17.074 17.8993 17.3863 17.6378 17.6478C17.3763 17.9093 17.064 18.1142 16.72 18.25C15.1676 18.5639 13.5806 18.6715 12 18.57C10.4228 18.6716 8.83902 18.564 7.29001 18.25C6.94608 18.1142 6.63369 17.9093 6.37223 17.6478C6.11076 17.3863 5.90579 17.074 5.77001 16.73C5.35001 15.67 5.44001 13.17 5.44001 12.01C5.44001 10.85 5.35001 8.34001 5.77001 7.29001C5.90196 6.94268 6.10547 6.62698 6.36733 6.36339C6.62919 6.09981 6.94355 5.89423 7.29001 5.76001C8.83902 5.44599 10.4228 5.33839 12 5.44001C13.5806 5.33856 15.1676 5.44616 16.72 5.76001C17.064 5.89579 17.3763 6.10076 17.6378 6.36223C17.8993 6.62369 18.1042 6.93608 18.24 7.28001C18.66 8.34001 18.56 10.84 18.56 12C18.56 13.16 18.66 15.67 18.24 16.72V16.73Z" fill="#000000"/>
    </symbol>
    <symbol viewBox="0 0 192 192" id="telegram">
   <path  stroke-width="12" d="M23.073 88.132s65.458-26.782 88.16-36.212c8.702-3.772 38.215-15.843 38.215-15.843s13.621-5.28 12.486 7.544c-.379 5.281-3.406 23.764-6.433 43.756-4.54 28.291-9.459 59.221-9.459 59.221s-.756 8.676-7.188 10.185c-6.433 1.509-17.027-5.281-18.919-6.79-1.513-1.132-28.377-18.106-38.214-26.404-2.649-2.263-5.676-6.79.378-12.071 13.621-12.447 29.891-27.913 39.728-37.72 4.54-4.527 9.081-15.089-9.837-2.264-26.864 18.483-53.35 35.835-53.35 35.835s-6.053 3.772-17.404.377c-11.351-3.395-24.594-7.921-24.594-7.921s-9.08-5.659 6.433-11.693Z"/>
    </symbol>
   <symbol  viewBox="-143 145 512 512" id="facebook">
   <path d="M113,145c-141.4,0-256,114.6-256,256s114.6,256,256,256s256-114.6,256-256S254.4,145,113,145z M272.8,560.7
		c-20.8,20.8-44.9,37.1-71.8,48.4c-27.8,11.8-57.4,17.7-88,17.7c-30.5,0-60.1-6-88-17.7c-26.9-11.4-51.1-27.7-71.8-48.4
		c-20.8-20.8-37.1-44.9-48.4-71.8C-107,461.1-113,431.5-113,401s6-60.1,17.7-88c11.4-26.9,27.7-51.1,48.4-71.8
		c20.9-20.8,45-37.1,71.9-48.5C52.9,181,82.5,175,113,175s60.1,6,88,17.7c26.9,11.4,51.1,27.7,71.8,48.4
		c20.8,20.8,37.1,44.9,48.4,71.8c11.8,27.8,17.7,57.4,17.7,88c0,30.5-6,60.1-17.7,88C309.8,515.8,293.5,540,272.8,560.7z"/>
	<path d="M146.8,313.7c10.3,0,21.3,3.2,21.3,3.2l6.6-39.2c0,0-14-4.8-47.4-4.8c-20.5,0-32.4,7.8-41.1,19.3
		c-8.2,10.9-8.5,28.4-8.5,39.7v25.7H51.2v38.3h26.5v133h49.6v-133h39.3l2.9-38.3h-42.2v-29.9C127.3,317.4,136.5,313.7,146.8,313.7z"
		/>
   </symbol>
<symbol viewBox="0 0 24 24" id="home"><path d="M20 11.75C19.8376 11.7507 19.6795 11.698 19.55 11.6L12 5.94L4.45 11.6C4.29087 11.7193 4.09085 11.7706 3.89394 11.7425C3.69702 11.7143 3.51935 11.6091 3.4 11.45C3.28066 11.2909 3.22941 11.0908 3.25754 10.8939C3.28567 10.697 3.39087 10.5193 3.55 10.4L11.55 4.4C11.6798 4.30263 11.8377 4.25 12 4.25C12.1623 4.25 12.3202 4.30263 12.45 4.4L20.45 10.4C20.5952 10.5179 20.6911 10.6859 20.7189 10.8709C20.7466 11.0559 20.7042 11.2446 20.6 11.4C20.5363 11.503 20.4482 11.5888 20.3436 11.6498C20.239 11.7108 20.121 11.7452 20 11.75Z" fill="#000000"/>
<path d="M18 19.75H6C5.80189 19.7474 5.61263 19.6676 5.47253 19.5275C5.33244 19.3874 5.25259 19.1981 5.25 19V9.5C5.25 9.30109 5.32902 9.11032 5.46967 8.96967C5.61032 8.82902 5.80109 8.75 6 8.75C6.19891 8.75 6.38968 8.82902 6.53033 8.96967C6.67098 9.11032 6.75 9.30109 6.75 9.5V18.25H17.25V9.5C17.25 9.30109 17.329 9.11032 17.4697 8.96967C17.6103 8.82902 17.8011 8.75 18 8.75C18.1989 8.75 18.3897 8.82902 18.5303 8.96967C18.671 9.11032 18.75 9.30109 18.75 9.5V19C18.7474 19.1981 18.6676 19.3874 18.5275 19.5275C18.3874 19.6676 18.1981 19.7474 18 19.75Z" fill="#000000"/>
<path d="M14 19.75C13.8019 19.7474 13.6126 19.6676 13.4725 19.5275C13.3324 19.3874 13.2526 19.1981 13.25 19V12.75H10.75V19C10.75 19.1989 10.671 19.3897 10.5303 19.5303C10.3897 19.671 10.1989 19.75 10 19.75C9.80109 19.75 9.61032 19.671 9.46967 19.5303C9.32902 19.3897 9.25 19.1989 9.25 19V12C9.25259 11.8019 9.33244 11.6126 9.47253 11.4725C9.61263 11.3324 9.80189 11.2526 10 11.25H14C14.1981 11.2526 14.3874 11.3324 14.5275 11.4725C14.6676 11.6126 14.7474 11.8019 14.75 12V19C14.7474 19.1981 14.6676 19.3874 14.5275 19.5275C14.3874 19.6676 14.1981 19.7474 14 19.75Z" fill="#000000"/>
</symbol>
<symbol viewBox="0 0 192 192" id="gallery"><path fill="#000000" d="M170 160a6 6 0 1 0 0-12v12Zm-148-6h-6a6.002 6.002 0 0 0 6 6v-6Zm0-68v-6a6 6 0 0 0-6 6h6Zm154-48a6 6 0 1 0-12 0h12Zm-12 92a6 6 0 1 0 12 0h-12ZM22 38v-6a6 6 0 0 0-6 6h6Zm124 6a6 6 0 1 0 0-12v12ZM16 62a6 6 0 1 0 12 0H16Zm154 86H22v12h148v-12Zm-142 6V86H16v68h12ZM164 38v92h12V38h-12ZM22 44h124V32H22v12Zm-6-6v24h12V38H16Zm6 54c34.242 0 62 27.758 62 62h12c0-40.869-33.13-74-74-74v12Z"/><circle cx="132" cy="76" r="14" stroke="#000000" stroke-width="12"/></symbol>
 <symbol viewBox="0 0 24 24" id="arrow-right" >
 <path opacity="0.1" d="M21 12C21 16.9706 16.9706 21 12 21C7.02944 21 3 16.9706 3 12C3 7.02944 7.02944 3 12 3C16.9706 3 21 7.02944 21 12Z" fill="#323232"/>
<path d="M21 12C21 16.9706 16.9706 21 12 21C7.02944 21 3 16.9706 3 12C3 7.02944 7.02944 3 12 3C16.9706 3 21 7.02944 21 12Z" stroke="#323232" stroke-width="2"/>
<path d="M12 16L12 8" stroke="#323232" stroke-width="2" stroke-linecap="round" stroke-linejoin="round"/>
<path d="M9 13L11.913 15.913V15.913C11.961 15.961 12.039 15.961 12.087 15.913V15.913L15 13" stroke="#323232" stroke-width="2" stroke-linecap="round" stroke-linejoin="round"/></symbol>
 <symbol viewBox="0 0 24 24" id="arrow-left"><path opacity="0.1" d="M3 12C3 4.5885 4.5885 3 12 3C19.4115 3 21 4.5885 21 12C21 19.4115 19.4115 21 12 21C4.5885 21 3 19.4115 3 12Z" fill="#323232"/>
<path d="M3 12C3 4.5885 4.5885 3 12 3C19.4115 3 21 4.5885 21 12C21 19.4115 19.4115 21 12 21C4.5885 21 3 19.4115 3 12Z" stroke="#323232" stroke-width="2"/>
<path d="M8 12L16 12" stroke="#323232" stroke-width="2" stroke-linecap="round" stroke-linejoin="round"/>
<path d="M11 9L8.08704 11.913V11.913C8.03897 11.961 8.03897 12.039 8.08704 12.087V12.087L11 15" stroke="#323232" stroke-width="2" stroke-linecap="round" stroke-linejoin="round"/></symbol>
   <symbol viewBox="0 0 31.812 26" id="twitter"> <path d="M20.877,2.000 C22.519,2.000 24.382,2.652 25.426,3.738 C26.724,3.486 27.949,3.025 29.050,2.386 C28.625,3.687 27.718,4.779 26.540,5.469 C27.693,5.332 28.797,5.035 29.820,4.590 C29.054,5.707 28.087,6.690 26.971,7.477 C26.981,7.715 26.987,7.955 26.987,8.195 C26.987,15.562 21.445,24.000 10.939,24.000 C7.715,24.000 4.507,23.133 1.982,21.551 C2.428,21.605 2.883,21.631 3.343,21.631 C6.019,21.631 8.482,20.740 10.439,19.242 C7.937,19.199 5.827,17.586 5.103,15.373 C5.450,15.437 5.810,15.473 6.178,15.473 C6.696,15.473 7.203,15.406 7.681,15.277 C5.068,14.768 3.100,12.514 3.100,9.813 C3.100,9.787 3.100,9.764 3.100,9.740 C3.871,10.158 4.750,10.410 5.687,10.440 C4.154,9.437 3.147,7.734 3.147,5.799 C3.147,4.777 3.428,3.818 3.919,2.998 C6.735,6.367 10.945,8.588 15.693,8.822 C15.594,8.414 15.543,7.984 15.543,7.553 C15.543,4.473 17.721,2.000 20.877,2.000 M29.820,4.590 L29.825,4.590 M20.877,-0.000 C17.033,-0.000 14.060,2.753 13.614,6.552 C10.425,5.905 7.524,4.204 5.440,1.711 C5.061,1.257 4.503,0.998 3.919,0.998 C3.867,0.998 3.815,1.000 3.763,1.004 C3.123,1.055 2.547,1.413 2.216,1.966 C1.525,3.122 1.159,4.447 1.159,5.799 C1.159,6.700 1.321,7.579 1.625,8.400 C1.300,8.762 1.113,9.238 1.113,9.740 L1.113,9.813 C1.113,11.772 1.882,13.589 3.160,14.952 C3.087,15.294 3.103,15.655 3.215,15.998 C3.657,17.348 4.459,18.510 5.499,19.396 C4.800,19.552 4.079,19.631 3.343,19.631 C2.954,19.631 2.577,19.609 2.222,19.565 C2.141,19.556 2.061,19.551 1.981,19.551 C1.148,19.551 0.391,20.078 0.108,20.886 C-0.202,21.770 0.140,22.753 0.932,23.249 C3.764,25.023 7.318,26.000 10.939,26.000 C17.778,26.000 22.025,22.843 24.383,20.195 C27.243,16.984 28.907,12.718 28.972,8.455 C29.899,7.682 30.717,6.790 31.410,5.792 C31.661,5.458 31.810,5.041 31.810,4.590 C31.810,3.909 31.473,3.308 30.958,2.946 C31.181,2.176 30.925,1.342 30.303,0.833 C29.940,0.537 29.496,0.386 29.049,0.386 C28.708,0.386 28.365,0.474 28.056,0.654 C27.391,1.040 26.680,1.344 25.931,1.562 C24.555,0.592 22.688,-0.000 20.877,-0.000 L20.877,-0.000 Z"/></symbol>
   
    </svg>
    
