  <svg xmlns="http://www.w3.org/2000/svg">
    <symbol viewBox="-7 0 32 32" id="instagram">
   <path d="M14.48 11.28c0 0.48-0.4 0.84-0.84 0.84-0.48 0-0.84-0.4-0.84-0.84 0-0.48 0.4-0.84 0.84-0.84 0.44-0.040 0.84 0.36 0.84 0.84zM17.76 11.64v8.72c0 2.48-2.040 4.52-4.52 4.52h-8.72c-2.48 0-4.52-2.040-4.52-4.52v-8.72c0-2.48 2.040-4.52 4.52-4.52h8.72c2.52 0 4.52 2.040 4.52 4.52zM16.080 11.64c0-1.56-1.28-2.84-2.84-2.84h-8.72c-1.56 0-2.84 1.28-2.84 2.84v8.72c0 1.56 1.28 2.84 2.84 2.84h8.72c1.6 0 2.88-1.28 2.88-2.84l-0.040-8.72zM13.52 16c0-2.56-2.080-4.64-4.64-4.64s-4.64 2.080-4.64 4.64 2.080 4.64 4.64 4.64 4.64-2.080 4.64-4.64zM11.84 16c0 1.64-1.32 2.96-2.96 2.96s-2.96-1.32-2.96-2.96 1.32-2.96 2.96-2.96 2.96 1.32 2.96 2.96z"></path>
    </symbol>
    <symbol viewBox="0 0 192 192" id="telegram">
   <path  stroke-width="12" d="M23.073 88.132s65.458-26.782 88.16-36.212c8.702-3.772 38.215-15.843 38.215-15.843s13.621-5.28 12.486 7.544c-.379 5.281-3.406 23.764-6.433 43.756-4.54 28.291-9.459 59.221-9.459 59.221s-.756 8.676-7.188 10.185c-6.433 1.509-17.027-5.281-18.919-6.79-1.513-1.132-28.377-18.106-38.214-26.404-2.649-2.263-5.676-6.79.378-12.071 13.621-12.447 29.891-27.913 39.728-37.72 4.54-4.527 9.081-15.089-9.837-2.264-26.864 18.483-53.35 35.835-53.35 35.835s-6.053 3.772-17.404.377c-11.351-3.395-24.594-7.921-24.594-7.921s-9.08-5.659 6.433-11.693Z"/>
    </symbol>
   <symbol  viewBox="-143 145 512 512" id="facebook">
   <path d="M113,145c-141.4,0-256,114.6-256,256s114.6,256,256,256s256-114.6,256-256S254.4,145,113,145z M272.8,560.7
		c-20.8,20.8-44.9,37.1-71.8,48.4c-27.8,11.8-57.4,17.7-88,17.7c-30.5,0-60.1-6-88-17.7c-26.9-11.4-51.1-27.7-71.8-48.4
		c-20.8-20.8-37.1-44.9-48.4-71.8C-107,461.1-113,431.5-113,401s6-60.1,17.7-88c11.4-26.9,27.7-51.1,48.4-71.8
		c20.9-20.8,45-37.1,71.9-48.5C52.9,181,82.5,175,113,175s60.1,6,88,17.7c26.9,11.4,51.1,27.7,71.8,48.4
		c20.8,20.8,37.1,44.9,48.4,71.8c11.8,27.8,17.7,57.4,17.7,88c0,30.5-6,60.1-17.7,88C309.8,515.8,293.5,540,272.8,560.7z"/>
	<path d="M146.8,313.7c10.3,0,21.3,3.2,21.3,3.2l6.6-39.2c0,0-14-4.8-47.4-4.8c-20.5,0-32.4,7.8-41.1,19.3
		c-8.2,10.9-8.5,28.4-8.5,39.7v25.7H51.2v38.3h26.5v133h49.6v-133h39.3l2.9-38.3h-42.2v-29.9C127.3,317.4,136.5,313.7,146.8,313.7z"
		/>
   </symbol>
<symbol viewBox="0 0 24 24" id="home"><path d="M20 11.75C19.8376 11.7507 19.6795 11.698 19.55 11.6L12 5.94L4.45 11.6C4.29087 11.7193 4.09085 11.7706 3.89394 11.7425C3.69702 11.7143 3.51935 11.6091 3.4 11.45C3.28066 11.2909 3.22941 11.0908 3.25754 10.8939C3.28567 10.697 3.39087 10.5193 3.55 10.4L11.55 4.4C11.6798 4.30263 11.8377 4.25 12 4.25C12.1623 4.25 12.3202 4.30263 12.45 4.4L20.45 10.4C20.5952 10.5179 20.6911 10.6859 20.7189 10.8709C20.7466 11.0559 20.7042 11.2446 20.6 11.4C20.5363 11.503 20.4482 11.5888 20.3436 11.6498C20.239 11.7108 20.121 11.7452 20 11.75Z" fill="#000000"/>
<path d="M18 19.75H6C5.80189 19.7474 5.61263 19.6676 5.47253 19.5275C5.33244 19.3874 5.25259 19.1981 5.25 19V9.5C5.25 9.30109 5.32902 9.11032 5.46967 8.96967C5.61032 8.82902 5.80109 8.75 6 8.75C6.19891 8.75 6.38968 8.82902 6.53033 8.96967C6.67098 9.11032 6.75 9.30109 6.75 9.5V18.25H17.25V9.5C17.25 9.30109 17.329 9.11032 17.4697 8.96967C17.6103 8.82902 17.8011 8.75 18 8.75C18.1989 8.75 18.3897 8.82902 18.5303 8.96967C18.671 9.11032 18.75 9.30109 18.75 9.5V19C18.7474 19.1981 18.6676 19.3874 18.5275 19.5275C18.3874 19.6676 18.1981 19.7474 18 19.75Z" fill="#000000"/>
<path d="M14 19.75C13.8019 19.7474 13.6126 19.6676 13.4725 19.5275C13.3324 19.3874 13.2526 19.1981 13.25 19V12.75H10.75V19C10.75 19.1989 10.671 19.3897 10.5303 19.5303C10.3897 19.671 10.1989 19.75 10 19.75C9.80109 19.75 9.61032 19.671 9.46967 19.5303C9.32902 19.3897 9.25 19.1989 9.25 19V12C9.25259 11.8019 9.33244 11.6126 9.47253 11.4725C9.61263 11.3324 9.80189 11.2526 10 11.25H14C14.1981 11.2526 14.3874 11.3324 14.5275 11.4725C14.6676 11.6126 14.7474 11.8019 14.75 12V19C14.7474 19.1981 14.6676 19.3874 14.5275 19.5275C14.3874 19.6676 14.1981 19.7474 14 19.75Z" fill="#000000"/>
</symbol>
<symbol viewBox="0 0 192 192" id="gallery"><path fill="#000000" d="M170 160a6 6 0 1 0 0-12v12Zm-148-6h-6a6.002 6.002 0 0 0 6 6v-6Zm0-68v-6a6 6 0 0 0-6 6h6Zm154-48a6 6 0 1 0-12 0h12Zm-12 92a6 6 0 1 0 12 0h-12ZM22 38v-6a6 6 0 0 0-6 6h6Zm124 6a6 6 0 1 0 0-12v12ZM16 62a6 6 0 1 0 12 0H16Zm154 86H22v12h148v-12Zm-142 6V86H16v68h12ZM164 38v92h12V38h-12ZM22 44h124V32H22v12Zm-6-6v24h12V38H16Zm6 54c34.242 0 62 27.758 62 62h12c0-40.869-33.13-74-74-74v12Z"/><circle cx="132" cy="76" r="14" stroke="#000000" stroke-width="12"/></symbol>
 <symbol viewBox="0 0 24 24" id="arrow-right" >
 <path opacity="0.1" d="M21 12C21 16.9706 16.9706 21 12 21C7.02944 21 3 16.9706 3 12C3 7.02944 7.02944 3 12 3C16.9706 3 21 7.02944 21 12Z" fill="#323232"/>
<path d="M21 12C21 16.9706 16.9706 21 12 21C7.02944 21 3 16.9706 3 12C3 7.02944 7.02944 3 12 3C16.9706 3 21 7.02944 21 12Z" stroke="#323232" stroke-width="2"/>
<path d="M12 16L12 8" stroke="#323232" stroke-width="2" stroke-linecap="round" stroke-linejoin="round"/>
<path d="M9 13L11.913 15.913V15.913C11.961 15.961 12.039 15.961 12.087 15.913V15.913L15 13" stroke="#323232" stroke-width="2" stroke-linecap="round" stroke-linejoin="round"/></symbol>
 <symbol viewBox="0 0 24 24" id="arrow-left"><path opacity="0.1" d="M3 12C3 4.5885 4.5885 3 12 3C19.4115 3 21 4.5885 21 12C21 19.4115 19.4115 21 12 21C4.5885 21 3 19.4115 3 12Z" fill="#323232"/>
<path d="M3 12C3 4.5885 4.5885 3 12 3C19.4115 3 21 4.5885 21 12C21 19.4115 19.4115 21 12 21C4.5885 21 3 19.4115 3 12Z" stroke="#323232" stroke-width="2"/>
<path d="M8 12L16 12" stroke="#323232" stroke-width="2" stroke-linecap="round" stroke-linejoin="round"/>
<path d="M11 9L8.08704 11.913V11.913C8.03897 11.961 8.03897 12.039 8.08704 12.087V12.087L11 15" stroke="#323232" stroke-width="2" stroke-linecap="round" stroke-linejoin="round"/></symbol>
    </svg>
    
